<?xml version="1.0" encoding="utf-8"?>
<!-- Generator: Adobe Illustrator 24.1.2, SVG Export Plug-In . SVG Version: 6.00 Build 0)  -->
<svg version="1.1" xmlns="http://www.w3.org/2000/svg" xmlns:xlink="http://www.w3.org/1999/xlink" x="0px" y="0px"
	 viewBox="0 0 500 500" enable-background="new 0 0 500 500" xml:space="preserve">
<g id="Background_Complete">
	<g>
		<g>
			<g>
				<g>
					<path fill="#E0E0E0" d="M157.05,460.9l-0.78-0.01l0.16-15.29c0.05-4.7,3.91-8.53,8.62-8.53h43.85c2.32,0,4.49,0.91,6.13,2.56
						c1.63,1.65,2.52,3.83,2.49,6.15l-0.16,15.12l-0.78-0.01l0.16-15.12c0.02-2.11-0.78-4.09-2.27-5.59
						c-1.48-1.5-3.46-2.32-5.57-2.32h-43.85c-4.28,0-7.79,3.48-7.83,7.75L157.05,460.9z"/>
				</g>
			</g>
			<g>
				<g>
					<path fill="#E0E0E0" d="M161.73,462.79c0,2.82-2.29,5.12-5.12,5.12c-2.82,0-5.12-2.29-5.12-5.12c0-2.82,2.29-5.12,5.12-5.12
						C159.44,457.68,161.73,459.97,161.73,462.79z"/>
				</g>
			</g>
			<g>
				<g>
					<path fill="#E0E0E0" d="M221.41,462.79c0,2.82-2.29,5.12-5.12,5.12c-2.82,0-5.12-2.29-5.12-5.12c0-2.82,2.29-5.12,5.12-5.12
						C219.12,457.68,221.41,459.97,221.41,462.79z"/>
				</g>
			</g>
		</g>
		<g>
			<g>
				<g>
					<path fill="#E0E0E0" d="M22.02,460.9l-0.78-0.01l0.16-15.29c0.05-4.7,3.91-8.53,8.62-8.53h43.85c2.32,0,4.49,0.91,6.13,2.56
						c1.63,1.65,2.52,3.83,2.49,6.15l-0.16,15.12l-0.78-0.01l0.16-15.12c0.02-2.11-0.78-4.09-2.27-5.59
						c-1.48-1.5-3.46-2.32-5.57-2.32H30.01c-4.28,0-7.79,3.48-7.83,7.75L22.02,460.9z"/>
				</g>
			</g>
			<g>
				<g>
					<path fill="#E0E0E0" d="M26.7,462.79c0,2.82-2.29,5.12-5.12,5.12s-5.12-2.29-5.12-5.12c0-2.82,2.29-5.12,5.12-5.12
						S26.7,459.97,26.7,462.79z"/>
				</g>
			</g>
			<g>
				<g>
					<path fill="#E0E0E0" d="M86.38,462.79c0,2.82-2.29,5.12-5.12,5.12c-2.83,0-5.12-2.29-5.12-5.12c0-2.82,2.29-5.12,5.12-5.12
						C84.09,457.68,86.38,459.97,86.38,462.79z"/>
				</g>
			</g>
		</g>
		<g>
			<path fill="#E0E0E0" d="M187.27,437.08h-0.77V191.89c0-4.67-3.8-8.46-8.46-8.46H59.05c-4.67,0-8.46,3.8-8.46,8.46v245.19h-0.77
				V191.89c0-5.09,4.14-9.24,9.24-9.24h118.99c5.09,0,9.24,4.14,9.24,9.24V437.08z"/>
		</g>
		<g>
			<g>
				<path fill="#F5F5F5" d="M105.23,408.36H86.68V194.78c0-3.98,3.23-7.21,7.21-7.21h4.14c3.98,0,7.21,3.23,7.21,7.21V408.36z"/>
			</g>
			<g>
				<path fill="#E0E0E0" d="M114.81,421.09h-9.58V193.32c0-2.06,1.67-3.72,3.72-3.72h2.14c2.06,0,3.72,1.67,3.72,3.72V421.09z"/>
			</g>
			<g>
				<g>
					<path fill="#EBEBEB" d="M82.28,410.38H63.73V196.81c0-3.98,3.23-7.21,7.21-7.21h4.14c3.98,0,7.21,3.23,7.21,7.21V410.38z"/>
				</g>
				<g>
					<g>
						<path fill="#E0E0E0" d="M73.01,191.21c-0.56,0-1.01-2.87-1.01-6.41c0-3.54,0.45-6.41,1.01-6.41c0.56,0,1.01,2.87,1.01,6.41
							C74.01,188.34,73.56,191.21,73.01,191.21z"/>
					</g>
				</g>
			</g>
			<g>
				<g>
					<path fill="#E0E0E0" d="M94.77,188.44c-0.56,0-1.01-1.9-1.01-4.24c0-2.34,0.45-4.24,1.01-4.24c0.56,0,1.01,1.9,1.01,4.24
						C95.78,186.54,95.32,188.44,94.77,188.44z"/>
				</g>
			</g>
			<g>
				<g>
					<path fill="#E0E0E0" d="M109.32,192.6c-0.56,0-1.01-2.4-1.01-5.37c0-2.97,0.45-5.37,1.01-5.37c0.56,0,1.01,2.4,1.01,5.37
						C110.32,190.19,109.87,192.6,109.32,192.6z"/>
				</g>
			</g>
		</g>
		<g>
			<g>
				<path fill="#F5F5F5" d="M163.38,408.36h-18.56V194.78c0-3.98,3.23-7.21,7.21-7.21h4.14c3.98,0,7.21,3.23,7.21,7.21V408.36z"/>
			</g>
			<g>
				<path fill="#E0E0E0" d="M172.96,421.09h-9.58V193.32c0-2.06,1.67-3.72,3.72-3.72h2.14c2.06,0,3.72,1.67,3.72,3.72V421.09z"/>
			</g>
			<g>
				<g>
					<path fill="#EBEBEB" d="M140.43,410.38h-18.56V196.81c0-3.98,3.23-7.21,7.21-7.21h4.14c3.98,0,7.21,3.23,7.21,7.21V410.38z"/>
				</g>
				<g>
					<g>
						<path fill="#E0E0E0" d="M131.15,191.21c-0.56,0-1.01-2.87-1.01-6.41c0-3.54,0.45-6.41,1.01-6.41c0.56,0,1.01,2.87,1.01,6.41
							C132.16,188.34,131.71,191.21,131.15,191.21z"/>
					</g>
				</g>
			</g>
			<g>
				<g>
					<path fill="#E0E0E0" d="M152.92,188.44c-0.56,0-1.01-1.9-1.01-4.24c0-2.34,0.45-4.24,1.01-4.24c0.56,0,1.01,1.9,1.01,4.24
						C153.92,186.54,153.47,188.44,152.92,188.44z"/>
				</g>
			</g>
			<g>
				<g>
					<path fill="#E0E0E0" d="M167.47,192.6c-0.56,0-1.01-2.4-1.01-5.37c0-2.97,0.45-5.37,1.01-5.37c0.56,0,1.01,2.4,1.01,5.37
						C168.47,190.19,168.02,192.6,167.47,192.6z"/>
				</g>
			</g>
		</g>
	</g>
	<g>
		
			<rect x="386.24" y="248.14" transform="matrix(-1 -1.224647e-16 1.224647e-16 -1 777.6982 608.4963)" fill="#E0E0E0" width="5.22" height="112.21"/>
		<polygon fill="#E0E0E0" points="391.46,360.36 429.74,468.36 425.25,468.36 386.24,360.36 		"/>
		<polygon fill="#E0E0E0" points="386.13,360.36 347.85,468.36 352.43,468.36 391.35,360.36 		"/>
		<rect x="369.65" y="414.97" fill="#E0E0E0" width="38.39" height="3.83"/>
		<g>
			<polygon fill="#EBEBEB" points="367.3,189.5 346.96,196.45 337.22,182.15 348.72,167.89 			"/>
			<path fill="#EBEBEB" d="M396.66,151.83L396.66,151.83c2.85,3.96,1.86,9.49-2.17,12.23l-21.16,13.43l-9.8-13.37l21.21-14.41
				C388.63,147.07,393.92,148.01,396.66,151.83z"/>
			<path fill="#EBEBEB" d="M369.54,162.75l-24.41,4.33l20.78,26.36c0,0,10.11-21.32,10.11-22.33L369.54,162.75z"/>
			
				<rect x="387.54" y="161.19" transform="matrix(-1 -1.224647e-16 1.224647e-16 -1 777.6981 409.33)" fill="#EBEBEB" width="2.61" height="86.95"/>
			<polygon fill="#EBEBEB" points="364.11,190.14 359.62,206.3 362.45,206.81 366.34,192.53 			"/>
			<polygon fill="#EBEBEB" points="345.13,167.08 330.38,169.44 331.66,171.93 348.52,169.44 			"/>
			<g>
				<path fill="#E0E0E0" d="M373.58,177.33c0.06-0.04-0.44-0.83-1.28-2.08c-0.96-1.41-2.09-3.05-3.32-4.86
					c-1.31-1.89-2.54-3.58-3.46-4.78c-0.92-1.2-1.53-1.91-1.59-1.86c-0.06,0.05,0.44,0.83,1.28,2.08c0.96,1.41,2.09,3.05,3.32,4.86
					c1.31,1.89,2.53,3.58,3.45,4.78C372.91,176.67,373.52,177.37,373.58,177.33z"/>
			</g>
			<g>
				<path fill="#E0E0E0" d="M365.39,165.71c-0.02-0.07-1.05,0.16-2.7,0.55c-1.65,0.39-3.93,0.93-6.46,1.49
					c-2.53,0.55-4.83,1.01-6.49,1.35c-1.66,0.34-2.69,0.55-2.68,0.63c0.01,0.07,1.06-0.02,2.75-0.26c1.68-0.24,4-0.64,6.54-1.2
					c2.54-0.56,4.81-1.16,6.44-1.64C364.42,166.14,365.41,165.78,365.39,165.71z"/>
			</g>
			<g>
				<path fill="#E0E0E0" d="M371.42,175.84c-0.05-0.04-0.68,0.67-1.58,1.92c-0.89,1.25-2.02,3.05-3.08,5.14
					c-1.05,2.1-1.81,4.08-2.28,5.54c-0.47,1.46-0.66,2.39-0.6,2.41c0.08,0.02,0.4-0.87,0.95-2.28c0.55-1.42,1.36-3.36,2.4-5.43
					c1.04-2.07,2.11-3.88,2.91-5.17C370.96,176.68,371.48,175.89,371.42,175.84z"/>
			</g>
		</g>
	</g>
</g>
<g id="Background_Simple" display="none">
	<path display="inline" fill="#F5F5F5" d="M395.63,132.23l-1.98-3.27c-16.71-27.53-46.92-44.13-78.77-42.12
		c-4.09,0.26-8.17,0.81-12.19,1.67c-28.96,6.2-54.16,28.1-64.6,56.14c-6.14,16.49-7.86,35.49-19.51,48.58
		c-15.17,17.04-40.93,17.57-63.57,16.87s-48.42-0.1-63.51,17c-9.45,10.71-12.46,25.95-11.7,40.3c2.02,37.99,28.49,71.95,62.15,88.83
		c33.66,16.88,73.29,18.39,110.13,10.97c51.61-10.4,100.69-38.97,130.19-83.1C411.77,239.97,419.23,179.85,395.63,132.23z"/>
</g>
<g id="Plant" display="none">
	<g display="inline">
		<path fill="#455A64" d="M399.29,276.97c-9.9,5.13-17.49,13.96-22.95,23.68c-5.46,9.72-8.98,20.39-12.46,30.98l-3.05,54.62
			c11.52-19.6,20.76-42.63,23.26-65.23c-2.55-0.23-5.11-0.46-7.67-0.68c5.14-0.78,9.45-4.51,12.2-8.92
			c2.74-4.42,4.16-9.51,5.54-14.52c-3.12,0.46-6.23,0.93-9.35,1.39C392.13,293.39,397.44,285.57,399.29,276.97z"/>
		<g opacity="0.3">
			<path d="M399.29,276.97c-9.9,5.13-17.49,13.96-22.95,23.68c-5.46,9.72-8.98,20.39-12.46,30.98l-3.05,54.62
				c11.52-19.6,20.76-42.63,23.26-65.23c-2.55-0.23-5.11-0.46-7.67-0.68c5.14-0.78,9.45-4.51,12.2-8.92
				c2.74-4.42,4.16-9.51,5.54-14.52c-3.12,0.46-6.23,0.93-9.35,1.39C392.13,293.39,397.44,285.57,399.29,276.97z"/>
		</g>
		<path fill="#455A64" d="M359.13,399.04c0,0-25-29.92-24.71-58.49h10.1c0,0-10.97-7.21-10.1-11.25c0.87-4.04,1.16-19.33,1.16-19.33
			l9.23,2.31c0,0-6.93-3.46-7.79-8.95s2.02-30.88,2.02-30.88s11.25,11.83,14.72,23.95c3.46,12.12,12.55,26.26,9.88,63.19
			C360.96,396.52,359.13,399.04,359.13,399.04z"/>
		<path fill="#455A64" d="M371.8,401.86c0,0,27.09-18.04,33.1-41.08l-8.12-2.21c0,0,10.4-3.4,10.58-6.84
			c0.19-3.44,3.3-15.8,3.3-15.8l-7.93-0.16c0,0,6.33-1.27,8.22-5.49c1.9-4.22,5.13-25.27,5.13-25.27s-11.64,7.05-17.07,16.04
			c-5.44,8.99-15.84,18.37-21.77,48.64C371.31,399.98,371.8,401.86,371.8,401.86z"/>
		<g>
			<path fill="#263238" d="M345.86,298.54c0.01,0,0.04,0.1,0.09,0.31c0.06,0.23,0.13,0.54,0.22,0.92c0.19,0.85,0.46,2.03,0.8,3.55
				c0.35,1.54,0.75,3.43,1.19,5.63c0.45,2.2,0.97,4.7,1.47,7.48c1.07,5.55,2.2,12.18,3.37,19.56c1.13,7.39,2.26,15.52,3.26,24.09
				c0.98,8.57,1.74,16.75,2.33,24.2c0.55,7.45,0.96,14.17,1.18,19.82c0.14,2.82,0.2,5.38,0.27,7.62c0.08,2.24,0.11,4.18,0.13,5.76
				c0.01,1.55,0.03,2.77,0.03,3.64c0,0.39,0,0.7,0,0.95c0,0.21-0.01,0.32-0.02,0.32c-0.01,0-0.02-0.11-0.03-0.32
				c-0.01-0.24-0.03-0.55-0.05-0.95c-0.03-0.87-0.07-2.08-0.13-3.64c-0.04-1.58-0.11-3.51-0.21-5.75c-0.1-2.24-0.19-4.79-0.35-7.61
				c-0.27-5.64-0.72-12.35-1.29-19.8c-0.61-7.44-1.39-15.62-2.37-24.18c-1-8.56-2.11-16.69-3.21-24.07
				c-1.14-7.38-2.23-14.01-3.26-19.57c-0.48-2.78-0.98-5.29-1.4-7.49c-0.41-2.21-0.79-4.1-1.1-5.65c-0.3-1.52-0.54-2.72-0.7-3.57
				c-0.07-0.39-0.13-0.69-0.17-0.93C345.86,298.65,345.85,298.54,345.86,298.54z"/>
		</g>
		<path fill="#455A64" d="M355.66,417.36c0,0-22.88-25.96-29.98-41.65l5.36-2.29c-3.89,0.64-7.87-1.03-10.88-3.57
			c-3.01-2.54-5.23-5.87-7.4-9.16l7.07-1.19c-6.42-1.8-12.08-6.19-15.44-11.96c8.34,1.37,15.88,5.95,22.09,11.67
			c5.03,4.64,9.3,10.02,13.39,15.51c2,2.68,3.74,5.54,5.2,8.55C348.91,391.22,355.67,407.83,355.66,417.36z"/>
		<g>
			<path fill="#263238" d="M405.27,320.14c0.01,0-0.03,0.09-0.1,0.27c-0.09,0.2-0.21,0.45-0.35,0.76c-0.33,0.69-0.8,1.66-1.39,2.88
				c-1.22,2.49-2.96,6.12-5.06,10.62c-4.21,9-9.75,21.55-15.22,35.69c-5.46,14.14-9.81,27.16-12.75,36.65
				c-1.47,4.74-2.63,8.59-3.4,11.26c-0.39,1.3-0.69,2.33-0.91,3.07c-0.1,0.33-0.18,0.59-0.25,0.79c-0.06,0.18-0.09,0.27-0.1,0.27
				c-0.01,0,0.01-0.1,0.05-0.28c0.05-0.21,0.12-0.48,0.2-0.81c0.2-0.74,0.47-1.78,0.82-3.09c0.71-2.69,1.81-6.55,3.24-11.31
				c2.85-9.52,7.15-22.57,12.62-36.73c5.48-14.15,11.08-26.69,15.37-35.66c2.14-4.48,3.93-8.09,5.21-10.55
				c0.63-1.21,1.12-2.16,1.48-2.84c0.16-0.3,0.29-0.54,0.4-0.73C405.21,320.21,405.26,320.13,405.27,320.14z"/>
		</g>
		<g>
			<path fill="#263238" d="M357.6,428.49c-0.02,0-0.06-0.16-0.11-0.48c-0.06-0.37-0.14-0.83-0.23-1.38c-0.18-1.2-0.48-2.93-0.9-5.05
				c-0.41-2.12-1-4.63-1.75-7.39c-0.77-2.75-1.72-5.75-2.88-8.84c-1.17-3.08-2.44-5.96-3.68-8.54c-1.26-2.57-2.48-4.84-3.57-6.71
				c-1.09-1.87-2-3.37-2.66-4.38c-0.29-0.47-0.54-0.86-0.74-1.18c-0.16-0.27-0.24-0.42-0.23-0.43c0.01-0.01,0.12,0.12,0.32,0.37
				c0.22,0.31,0.49,0.68,0.82,1.13c0.71,0.98,1.68,2.45,2.81,4.31c1.14,1.85,2.39,4.11,3.68,6.68c1.27,2.58,2.56,5.47,3.74,8.57
				c1.16,3.11,2.1,6.13,2.86,8.9c0.73,2.78,1.28,5.31,1.65,7.45c0.38,2.14,0.62,3.88,0.74,5.09c0.05,0.55,0.1,1.01,0.13,1.39
				C357.61,428.32,357.62,428.48,357.6,428.49z"/>
		</g>
		<rect x="337.71" y="422.38" fill="#FF725E" width="50.08" height="10.21"/>
		<polygon fill="#FF725E" points="342.49,432.59 347.9,466.95 378.16,466.95 383.21,432.59 		"/>
		<g>
			<path fill="#263238" d="M384.72,432.59c0,0.14-9.47,0.26-21.16,0.26c-11.69,0-21.16-0.12-21.16-0.26c0-0.14,9.47-0.26,21.16-0.26
				C375.24,432.33,384.72,432.45,384.72,432.59z"/>
		</g>
	</g>
</g>
<g id="Floor">
	<g>
		<path fill="#263238" d="M471.87,466.95c0,0.14-99.34,0.26-221.86,0.26c-122.56,0-221.88-0.12-221.88-0.26
			c0-0.14,99.32-0.26,221.88-0.26C372.53,466.69,471.87,466.81,471.87,466.95z"/>
	</g>
</g>
<g id="Stars">
	<g>
		<path fill="#FF725E" d="M193.31,68.07l4.7,1.3l-3.47,0.85c-1.77,0.28-2.57,1.05-2.89,2.03L190.57,81l-1.33-8.76
			c-0.33-0.82-1-1.47-1.83-1.77l-4.51-1.1l4.76-1.35c0.79-0.33,1.42-0.97,1.73-1.77l1.19-9.91l0.85,9.69
			C191.69,66.98,192.4,67.73,193.31,68.07z"/>
	</g>
	<g>
		<path fill="#FF725E" d="M316.9,299.24l2.8,0.77l-2.07,0.51c-1.06,0.17-1.53,0.62-1.72,1.21l-0.65,5.22l-0.79-5.22
			c-0.2-0.49-0.59-0.88-1.09-1.06l-2.69-0.66l2.84-0.8c0.47-0.19,0.85-0.58,1.03-1.05l0.71-5.91l0.51,5.78
			C315.93,298.58,316.35,299.03,316.9,299.24z"/>
	</g>
	<g>
		<path fill="#FF725E" d="M334.5,191.95l3.95,1.09l-2.92,0.71c-1.49,0.24-2.15,0.88-2.43,1.71l-0.91,7.35l-1.12-7.35
			c-0.28-0.69-0.84-1.23-1.54-1.49l-3.79-0.92l4-1.13c0.67-0.27,1.19-0.81,1.45-1.48l1-8.32l0.71,8.14
			C333.14,191.02,333.73,191.66,334.5,191.95z"/>
	</g>
	<g>
		<path fill="#FF725E" d="M176.78,98.07l2.8,0.77l-2.07,0.51c-1.06,0.17-1.53,0.62-1.72,1.21l-0.65,5.22l-0.79-5.22
			c-0.2-0.49-0.59-0.88-1.09-1.06l-2.69-0.66l2.84-0.8c0.47-0.19,0.85-0.58,1.03-1.05l0.71-5.91l0.51,5.78
			C175.81,97.42,176.23,97.87,176.78,98.07z"/>
	</g>
</g>
<g id="Character">
	<g>
		<g>
			<g>
				<g>
					<g>
						<g>
							<g>
								<g>
									<g>
										<g>
											<g>
												<g>
													<path fill="#263238" d="M232.22,435.87l0.36,20.1c0,0-20.31,7.11-20.61,10.83l39,0.71l0.73-31.34L232.22,435.87z"/>
												</g>
											</g>
										</g>
									</g>
								</g>
							</g>
						</g>
					</g>
				</g>
				<g>
					<g>
						<g>
							<g>
								<g>
									<g>
										<g>
											<g>
												<g>
													<g>
														<path fill="#E0E0E0" d="M244.67,454.5c0.75,0.22,1.26,1.08,1.07,1.84c-0.19,0.76-1.06,1.28-1.81,1.07
															c-0.75-0.21-1.39-1.22-1.12-1.95c0.27-0.73,1.33-1.29,2.01-0.91"/>
													</g>
												</g>
											</g>
										</g>
									</g>
								</g>
							</g>
						</g>
					</g>
				</g>
				<g>
					<g>
						<g>
							<g>
								<g>
									<g>
										<g>
											<g>
												<g>
													<path fill="#455A64" d="M250.97,467.52l-0.05-3.16l-37.37,0.5c0,0-1.75,0.72-1.58,1.95L250.97,467.52z"/>
												</g>
											</g>
										</g>
									</g>
								</g>
							</g>
						</g>
					</g>
				</g>
				<g>
					<g>
						<g>
							<g>
								<g>
									<g>
										<g>
											<g>
												<g>
													<g>
														<path fill="#FFFFFF" d="M231.95,455.76c0,0.19,0.95,0.29,1.88,0.92c0.94,0.61,1.41,1.44,1.59,1.37
															c0.18-0.03-0.09-1.18-1.22-1.92C233.07,455.38,231.91,455.59,231.95,455.76z"/>
													</g>
												</g>
											</g>
										</g>
									</g>
								</g>
							</g>
						</g>
					</g>
				</g>
				<g>
					<g>
						<g>
							<g>
								<g>
									<g>
										<g>
											<g>
												<g>
													<g>
														<path fill="#FFFFFF" d="M227.83,457.38c-0.05,0.18,0.77,0.52,1.4,1.34c0.66,0.8,0.8,1.67,0.99,1.67
															c0.18,0.03,0.33-1.08-0.47-2.08C228.96,457.3,227.84,457.2,227.83,457.38z"/>
													</g>
												</g>
											</g>
										</g>
									</g>
								</g>
							</g>
						</g>
					</g>
				</g>
				<g>
					<g>
						<g>
							<g>
								<g>
									<g>
										<g>
											<g>
												<g>
													<g>
														<path fill="#FFFFFF" d="M225.42,462.23c0.17,0.04,0.45-0.9-0.02-1.95c-0.46-1.06-1.35-1.48-1.44-1.33
															c-0.11,0.15,0.46,0.72,0.83,1.59C225.19,461.41,225.23,462.21,225.42,462.23z"/>
													</g>
												</g>
											</g>
										</g>
									</g>
								</g>
							</g>
						</g>
					</g>
				</g>
				<g>
					<g>
						<g>
							<g>
								<g>
									<g>
										<g>
											<g>
												<g>
													<g>
														<path fill="#FFFFFF" d="M232.38,451.17c0.08,0.17,0.96-0.07,2.03,0.02c1.08,0.07,1.91,0.45,2.01,0.29
															c0.11-0.14-0.69-0.86-1.96-0.95C233.19,450.43,232.29,451.02,232.38,451.17z"/>
													</g>
												</g>
											</g>
										</g>
									</g>
								</g>
							</g>
						</g>
					</g>
				</g>
			</g>
		</g>
		<g>
			<g>
				<g>
					<g>
						<g>
							<g>
								<path fill="#263238" d="M279.81,434.64l2.11,24.23l-3.86,19.65c-0.28,1.42,0.7,2.77,2.13,2.95l0,0
									c0.8,0.1,1.6-0.19,2.14-0.78c3.48-3.79,16.2-17.8,15.94-19.56c-0.29-2.04-0.53-25.71-0.53-25.71L279.81,434.64z"/>
							</g>
						</g>
					</g>
				</g>
				<g>
					<g>
						<g>
							<g>
								<path fill="#455A64" d="M280.2,481.47l17.98-21.98l0.07,1.03c0.06,0.89-0.2,1.77-0.73,2.48c-1.43,1.91-5.48,7.1-15.1,17.68
									C281.85,481.3,281.02,481.6,280.2,481.47L280.2,481.47z"/>
							</g>
						</g>
					</g>
				</g>
				<g opacity="0.6">
					<g>
						<g>
							<g>
								<g>
									<path fill="#FFFFFF" d="M292.69,451.98c-0.58,0.46-0.72,1.39-0.29,1.99c0.44,0.6,1.38,0.75,1.97,0.3
										c0.59-0.45,0.79-1.56,0.29-2.11c-0.5-0.55-1.62-0.66-2.09-0.09"/>
								</g>
							</g>
						</g>
					</g>
				</g>
				<g>
					<g>
						<g>
							<g>
								<g>
									<path fill="#FFFFFF" d="M285.06,470.51c-0.13,0.08-0.76-1.16-2.25-1.75c-1.47-0.64-2.79-0.21-2.83-0.36
										c-0.02-0.06,0.27-0.27,0.83-0.38c0.56-0.12,1.38-0.09,2.2,0.24c0.82,0.34,1.42,0.91,1.73,1.38
										C285.06,470.13,285.12,470.49,285.06,470.51z"/>
								</g>
							</g>
						</g>
					</g>
				</g>
				<g>
					<g>
						<g>
							<g>
								<g>
									<path fill="#FFFFFF" d="M283.54,473.87c-0.11,0.11-0.94-0.63-2.22-0.91c-1.27-0.31-2.34,0-2.39-0.15
										c-0.08-0.12,1.06-0.71,2.51-0.37C282.9,472.77,283.67,473.8,283.54,473.87z"/>
								</g>
							</g>
						</g>
					</g>
				</g>
				<g>
					<g>
						<g>
							<g>
								<g>
									<path fill="#FFFFFF" d="M288.02,466.14c-0.11,0.12-1.38-1.02-3.33-1.63c-1.94-0.64-3.64-0.45-3.65-0.61
										c-0.05-0.13,1.73-0.58,3.82,0.1C286.94,464.66,288.13,466.06,288.02,466.14z"/>
								</g>
							</g>
						</g>
					</g>
				</g>
				<g>
					<g>
						<g>
							<g>
								<g>
									<path fill="#FFFFFF" d="M287.99,458.72c-0.06,0.15-1.43-0.32-3.18-0.28c-1.75,0.02-3.11,0.56-3.17,0.41
										c-0.07-0.11,1.28-0.91,3.16-0.94C286.68,457.86,288.06,458.6,287.99,458.72z"/>
								</g>
							</g>
						</g>
					</g>
				</g>
				<g>
					<g>
						<g>
							<g>
								<g>
									<path fill="#FFFFFF" d="M287.55,451.59c-0.07,0.15-1.47-0.58-3.3-0.38c-1.84,0.16-3.07,1.14-3.17,1.01
										c-0.04-0.05,0.2-0.37,0.74-0.73c0.53-0.36,1.38-0.72,2.37-0.82c0.99-0.1,1.89,0.09,2.49,0.34
										C287.28,451.27,287.58,451.54,287.55,451.59z"/>
								</g>
							</g>
						</g>
					</g>
				</g>
				<g>
					<g>
						<g>
							<g>
								<g>
									<path fill="#FFFFFF" d="M284.2,449.86c-0.03,0-0.11-0.32-0.09-0.92c0.02-0.59,0.13-1.47,0.58-2.45
										c0.23-0.47,0.47-1.07,1.13-1.43c0.33-0.18,0.83-0.15,1.14,0.15c0.31,0.29,0.42,0.69,0.45,1.07
										c0.07,1.54-1.15,3.12-2.87,3.45c-1.73,0.3-3.37-0.59-4.14-1.88c-0.17-0.33-0.3-0.75-0.14-1.17
										c0.16-0.43,0.64-0.62,0.99-0.58c0.73,0.06,1.21,0.45,1.65,0.73c0.88,0.62,1.44,1.29,1.78,1.78
										c0.34,0.49,0.45,0.8,0.43,0.81c-0.08,0.07-0.69-1.15-2.41-2.28c-0.43-0.26-0.93-0.58-1.46-0.6
										c-0.25-0.01-0.47,0.11-0.54,0.32c-0.08,0.2-0.01,0.5,0.14,0.77c0.65,1.05,2.15,1.86,3.61,1.59
										c1.45-0.27,2.53-1.65,2.48-2.89c-0.02-0.3-0.11-0.59-0.29-0.76c-0.17-0.16-0.41-0.2-0.63-0.09
										c-0.46,0.22-0.74,0.75-0.98,1.19C284.12,448.5,284.31,449.87,284.2,449.86z"/>
								</g>
							</g>
						</g>
					</g>
				</g>
			</g>
		</g>
		<g>
			<path fill="#FF725E" d="M280.2,274.26c0,0,16.96,6.36,20.41,4.06c3.45-2.3,6.61-4.31,7.76-10.92c1.15-6.61,8.62-46.11,6.03-60.41
				c-2.59-14.3-13.79-43.61-13.79-43.61c-3.88-10.35-12.92-13.77-22.99-15.8l-18.96,4.02l20.25,112.83L280.2,274.26z"/>
			<path opacity="0.3" d="M280.2,274.26c0,0,16.96,6.36,20.41,4.06c3.45-2.3,6.61-4.31,7.76-10.92c1.15-6.61,8.62-46.11,6.03-60.41
				c-2.59-14.3-13.79-43.61-13.79-43.61c-3.88-10.35-12.92-13.77-22.99-15.8l-18.96,4.02l20.25,112.83L280.2,274.26z"/>
			<g>
				<path fill="#263238" d="M300.24,229.74c0.02,0,0.03,0.17,0.05,0.5c0.01,0.39,0.02,0.86,0.03,1.43c0.02,0.62-0.02,1.38-0.05,2.26
					c-0.02,0.88-0.1,1.88-0.2,2.99c-0.35,4.42-1.31,10.49-2.72,17.1c-1.42,6.61-2.98,12.54-4.17,16.81
					c-0.59,2.13-1.1,3.85-1.45,5.04c-0.17,0.54-0.31,0.99-0.43,1.36c-0.1,0.31-0.17,0.47-0.18,0.46c-0.02,0,0.01-0.17,0.08-0.49
					c0.09-0.38,0.2-0.83,0.33-1.39c0.33-1.28,0.76-2.99,1.29-5.08c1.1-4.29,2.59-10.22,4.01-16.82c1.41-6.6,2.41-12.63,2.86-17.03
					c0.12-1.1,0.22-2.09,0.27-2.97c0.06-0.88,0.13-1.63,0.14-2.25c0.03-0.57,0.05-1.04,0.07-1.42
					C300.21,229.91,300.23,229.74,300.24,229.74z"/>
			</g>
			<g>
				<path fill="#263238" d="M311.87,237.78c0,0.14-1.93,0.21-4.29-0.11c-2.36-0.32-4.2-0.9-4.16-1.04c0.04-0.14,1.91,0.21,4.23,0.52
					C309.98,237.47,311.88,237.63,311.87,237.78z"/>
			</g>
			<g>
				<path fill="#263238" d="M306.59,265.24c-0.04,0.14-1.76-0.18-3.85-0.72c-2.09-0.54-3.75-1.08-3.72-1.22
					c0.04-0.14,1.76,0.18,3.85,0.72C304.96,264.55,306.63,265.1,306.59,265.24z"/>
			</g>
		</g>
		<g>
			<path fill="#455A64" d="M211.65,260.88c0,0-3.54,19.04-2.46,32.99c0.42,5.4,20.83,154.28,20.83,154.28h24.59L247.7,307.8
				l2.01,0.44c0,0,13.43,59.86,14.52,69.55c0.98,8.71,12.31,72,12.31,72l22.49,0.26l-7.18-83.71l-8.36-80.32l-3.14-23.38
				L211.65,260.88z"/>
			<g>
				<path fill="#263238" d="M251.57,293.48c0.01,0.03-0.35,0.24-1.03,0.58c-0.68,0.32-1.68,0.81-3.05,1.07
					c-0.68,0.12-1.45,0.16-2.27,0.02c-0.81-0.14-1.67-0.49-2.37-1.14c-0.7-0.65-1.15-1.56-1.44-2.51c-0.29-0.96-0.46-1.95-0.66-2.96
					c-0.78-4.05-1.32-7.75-1.63-10.43c-0.16-1.34-0.26-2.43-0.31-3.18c-0.06-0.75-0.07-1.17-0.03-1.18c0.04,0,0.12,0.41,0.23,1.15
					c0.13,0.85,0.29,1.91,0.48,3.16c0.4,2.67,0.99,6.35,1.77,10.38c0.4,2,0.67,4.03,1.91,5.22c1.25,1.17,2.98,1.29,4.25,1.11
					c1.31-0.2,2.32-0.62,3.02-0.89C251.17,293.6,251.56,293.45,251.57,293.48z"/>
			</g>
			<g>
				<path fill="#263238" d="M244.17,274.45c-0.01-0.02,0.16-0.13,0.51-0.15c0.34-0.03,0.86,0.08,1.38,0.44
					c0.49,0.36,1.01,1.01,1.04,1.9c0.04,0.9-0.66,1.78-1.58,2.11c-0.91,0.35-2.02,0.15-2.58-0.55c-0.57-0.68-0.6-1.52-0.47-2.11
					c0.15-0.61,0.47-1.03,0.75-1.24c0.28-0.21,0.47-0.24,0.48-0.22c0.07,0.07-0.69,0.41-0.86,1.53c-0.08,0.53,0.01,1.22,0.47,1.73
					c0.44,0.52,1.28,0.67,2.03,0.38c0.75-0.28,1.29-0.95,1.28-1.63c0.01-0.68-0.38-1.26-0.78-1.61
					C244.97,274.3,244.17,274.54,244.17,274.45z"/>
			</g>
			<g>
				<path fill="#263238" d="M283.15,284.57c0,0.04-0.29,0.08-0.84,0.13c-0.54,0.06-1.33,0.07-2.31,0.03
					c-1.95-0.09-4.65-0.56-7.41-1.72c-2.76-1.17-4.98-2.77-6.4-4.1c-0.71-0.66-1.26-1.24-1.59-1.67c-0.34-0.42-0.52-0.67-0.49-0.69
					c0.07-0.06,0.86,0.84,2.33,2.08c1.46,1.24,3.67,2.76,6.36,3.9c2.7,1.13,5.32,1.65,7.23,1.83
					C281.94,284.54,283.14,284.48,283.15,284.57z"/>
			</g>
			<g>
				<path fill="#263238" d="M223.36,274.9c0.05,0.03-0.36,1.02-1.28,2.51c-0.91,1.48-2.36,3.43-4.27,5.29
					c-1.91,1.86-3.9,3.25-5.41,4.12c-1.51,0.87-2.52,1.26-2.54,1.21c-0.04-0.08,0.91-0.58,2.35-1.52c1.44-0.94,3.36-2.35,5.24-4.18
					c1.88-1.83,3.35-3.7,4.32-5.12C222.75,275.79,223.29,274.86,223.36,274.9z"/>
			</g>
		</g>
		<g>
			<g>
				<g>
					<path fill="#263238" d="M210.25,106.91c1.59-2,3.55-3.93,3.96-6.45c0.37-2.32-0.64-4.86,0.4-6.97c1.28-2.59,4.96-3.1,6.55-5.51
						c0.77-1.17,0.96-2.65,1.72-3.82c1.3-2,3.97-2.64,6.35-2.51c2.38,0.14,4.7,0.88,7.09,0.93c3.27,0.07,6.58-1.16,9.76-0.38
						c3.51,0.86,5.77,3.82,8.16,6.67l3.1,3.29c0.63,0.56,1.3,1.07,2.03,1.49c1.27,0.74,2.71,1.22,3.82,2.18
						c2.37,2.06,2.39,6.26,0.03,8.33c2.55,0.68,4.48,3.21,4.45,5.85c-0.01,1.45-0.55,2.84-0.91,4.24c-0.37,1.4-0.55,2.96,0.09,4.26
						c0.64,1.3,2.39,2.13,3.62,1.36c-0.35,1.9-1.62,3.6-3.33,4.5c0.71,0.67,1.69,1.04,2.67,1.03c-2.35,6.34-9.38,9.95-16.13,10.31
						c-6.75,0.36-13.33-1.89-19.72-4.12l-18.4-3.86c-1.61-0.29-2.37-2.2-2.43-3.84c-0.05-1.64,0.28-3.36-0.38-4.86
						c-0.9-2.06-3.39-3.06-4.33-5.1C207.34,111.62,208.67,108.91,210.25,106.91z"/>
				</g>
				<g>
					<g>
						<g>
							<g>
								<g>
									<g>
										<g>
											<g>
												<g>
													<path fill="#263238" d="M254.05,121.45c1.12-4.17,2.23-8.37,2.61-12.67c0.39-4.3,0.03-8.74-1.68-12.71
														c-0.26-0.6-2.41-4.61-3.06-4.51c-0.46,0.07,0.93,3.84,0.72,4.26c-2.05,3.97-2.42,8.64-1.83,13.06
														S252.53,117.25,254.05,121.45"/>
												</g>
											</g>
										</g>
									</g>
								</g>
								<g>
									<g>
										<g>
											<g>
												<g>
													<g>
														<path fill="#FFBE9D" d="M256.22,147.74l-2.59-42.77c-0.21-10.83-6.68-19.73-17.5-19.23l-1,0.1
															c-10.03,1.06-17.58,9.64-17.33,19.73c0.23,9.38,0.61,19.75,1.19,24.74c1.22,10.32,11.72,10.84,11.72,10.84
															c0.02,0,0.57,8.35,0.57,8.35"/>
													</g>
												</g>
											</g>
										</g>
									</g>
								</g>
								<g>
									<g>
										<g>
											<g>
												<g>
													<g>
														<g>
															<path fill="#EB996E" d="M230.72,141.15c0,0,6.55-0.3,13.04-5.4c0,0-2.44,7.86-12.85,8.02L230.72,141.15z"/>
														</g>
													</g>
												</g>
											</g>
										</g>
									</g>
								</g>
								<g>
									<g>
										<g>
											<g>
												<g>
													<g>
														<g>
															<g>
																<g>
																	<g>
																		<g>
																			<g>
																				<g>
																					<path fill="#263238" d="M222.98,113c0.05,0.78,0.76,1.38,1.58,1.34c0.82-0.04,1.44-0.71,1.38-1.49
																						c-0.05-0.78-0.76-1.38-1.58-1.34C223.54,111.55,222.92,112.22,222.98,113z"/>
																				</g>
																			</g>
																		</g>
																	</g>
																</g>
															</g>
														</g>
													</g>
												</g>
											</g>
										</g>
									</g>
								</g>
								<g>
									<g>
										<g>
											<g>
												<g>
													<g>
														<g>
															<g>
																<g>
																	<g>
																		<g>
																			<g>
																				<g>
																					<g>
																						<path fill="#263238" d="M220.46,109.63c0.2,0.17,1.23-0.77,2.82-0.94c1.58-0.19,2.84,0.51,2.99,0.3
																							c0.08-0.09-0.15-0.42-0.69-0.74c-0.54-0.32-1.43-0.58-2.42-0.47c-0.99,0.11-1.78,0.56-2.22,0.98
																							C220.49,109.19,220.37,109.55,220.46,109.63z"/>
																					</g>
																				</g>
																			</g>
																		</g>
																	</g>
																</g>
															</g>
														</g>
													</g>
												</g>
											</g>
										</g>
									</g>
								</g>
								<g>
									<g>
										<g>
											<g>
												<g>
													<g>
														<g>
															<g>
																<g>
																	<g>
																		<g>
																			<g>
																				<g>
																					<path fill="#263238" d="M237.76,111.96c0.05,0.78,0.76,1.38,1.58,1.34c0.82-0.04,1.44-0.71,1.38-1.49
																						c-0.05-0.78-0.76-1.38-1.58-1.34C238.32,110.51,237.7,111.18,237.76,111.96z"/>
																				</g>
																			</g>
																		</g>
																	</g>
																</g>
															</g>
														</g>
													</g>
												</g>
											</g>
										</g>
									</g>
								</g>
								<g>
									<g>
										<g>
											<g>
												<g>
													<g>
														<g>
															<g>
																<g>
																	<g>
																		<g>
																			<g>
																				<g>
																					<g>
																						<path fill="#263238" d="M236.09,108.63c0.2,0.17,1.24-0.77,2.82-0.94c1.58-0.19,2.84,0.51,2.99,0.3
																							c0.08-0.09-0.15-0.42-0.69-0.74c-0.54-0.32-1.43-0.58-2.42-0.48c-0.99,0.11-1.78,0.56-2.22,0.98
																							C236.12,108.19,235.99,108.56,236.09,108.63z"/>
																					</g>
																				</g>
																			</g>
																		</g>
																	</g>
																</g>
															</g>
														</g>
													</g>
												</g>
											</g>
										</g>
									</g>
								</g>
								<g>
									<g>
										<g>
											<g>
												<g>
													<g>
														<g>
															<g>
																<g>
																	<g>
																		<g>
																			<g>
																				<g>
																					<path fill="#263238" d="M231.68,121.44c0-0.09-1.01-0.16-2.63-0.19c-0.41,0-0.8-0.04-0.9-0.31
																						c-0.13-0.28,0-0.74,0.14-1.23c0.28-1.02,0.57-2.09,0.87-3.21c1.2-4.57,2.03-8.31,1.84-8.36
																						c-0.18-0.05-1.31,3.62-2.51,8.19c-0.29,1.13-0.56,2.2-0.82,3.23c-0.1,0.48-0.31,1.03-0.04,1.61
																						c0.14,0.29,0.46,0.48,0.73,0.52c0.27,0.05,0.5,0.03,0.7,0.02C230.68,121.63,231.68,121.53,231.68,121.44z"/>
																				</g>
																			</g>
																		</g>
																	</g>
																</g>
															</g>
														</g>
													</g>
												</g>
											</g>
										</g>
									</g>
								</g>
								<g>
									<g>
										<g>
											<g>
												<g>
													<g>
														<g>
															<g>
																<g>
																	<g>
																		<g>
																			<g>
																				<g>
																					<path fill="#263238" d="M236.47,122.04c-0.26,0.01-0.08,1.74-1.43,3.12c-1.34,1.38-3.2,1.38-3.19,1.63
																						c-0.01,0.11,0.44,0.29,1.22,0.23c0.76-0.05,1.85-0.42,2.67-1.26c0.82-0.85,1.1-1.89,1.09-2.6
																						C236.82,122.43,236.58,122.02,236.47,122.04z"/>
																				</g>
																			</g>
																		</g>
																	</g>
																</g>
															</g>
														</g>
													</g>
												</g>
											</g>
										</g>
									</g>
								</g>
								<g>
									<g>
										<g>
											<g>
												<g>
													<g>
														<g>
															<g>
																<g>
																	<path fill="#263238" d="M235.5,102.18c0.2,0.42,1.77,0.04,3.65,0.07c1.89-0.01,3.45,0.38,3.65-0.04
																		c0.09-0.2-0.21-0.58-0.87-0.93c-0.65-0.35-1.65-0.65-2.78-0.66c-1.13,0-2.14,0.28-2.79,0.63
																		C235.72,101.61,235.41,101.98,235.5,102.18z"/>
																</g>
															</g>
														</g>
													</g>
												</g>
											</g>
										</g>
									</g>
								</g>
								<g>
									<g>
										<g>
											<g>
												<g>
													<g>
														<g>
															<g>
																<g>
																	<path fill="#263238" d="M220.56,104.28c0.32,0.33,1.37-0.16,2.69-0.31c1.31-0.2,2.46-0.01,2.67-0.42
																		c0.09-0.19-0.12-0.54-0.64-0.83c-0.52-0.29-1.35-0.48-2.25-0.36c-0.9,0.12-1.65,0.53-2.07,0.95
																		C220.54,103.73,220.42,104.12,220.56,104.28z"/>
																</g>
															</g>
														</g>
													</g>
												</g>
											</g>
										</g>
									</g>
								</g>
								<g>
									<g>
										<g>
											<g>
												<g>
													<path fill="#FFBE9D" d="M253.59,112.71c0.17-0.09,6.88-2.85,7.4,4.24c0.52,7.09-6.71,6.15-6.73,5.95
														C254.23,122.69,253.59,112.71,253.59,112.71z"/>
												</g>
											</g>
										</g>
									</g>
								</g>
								<g>
									<g>
										<g>
											<g>
												<g>
													<g>
														<path fill="#EB996E" d="M256.22,120.05c0.03-0.02,0.13,0.08,0.35,0.16c0.21,0.08,0.57,0.12,0.92-0.05
															c0.73-0.33,1.27-1.56,1.21-2.85c-0.03-0.65-0.21-1.25-0.48-1.74c-0.25-0.5-0.62-0.84-1-0.88
															c-0.38-0.06-0.63,0.19-0.7,0.39c-0.08,0.21-0.02,0.34-0.06,0.36c-0.02,0.02-0.16-0.11-0.13-0.4
															c0.02-0.14,0.09-0.32,0.25-0.46c0.16-0.15,0.4-0.24,0.67-0.23c0.55,0,1.08,0.46,1.37,1c0.32,0.54,0.54,1.22,0.57,1.94
															c0.06,1.43-0.57,2.82-1.58,3.19c-0.49,0.17-0.92,0.05-1.14-0.1C256.25,120.22,256.2,120.07,256.22,120.05z"/>
													</g>
												</g>
											</g>
										</g>
									</g>
								</g>
								<g>
									<g>
										<g>
											<g>
												<g>
													<path fill="#263238" d="M221.64,93.53c-1.19-0.56,2.02-4.5,4.76-5.96c4.14-2.21,10.57-3.82,14.58-2.96
														c4.82,1.04,8.9,3.14,11.56,7.29c2.65,4.15,3.87,9.12,4.05,14.04c0.05,1.5,0,3.08-0.72,4.4
														c-0.89,1.63-2.73,2.74-2.5,4.9c0.08,0.79-0.09,1.6-0.6,2.21c-1.21,1.46-2.88,0.27-3.69-0.98
														c-1.74-2.68-2.13-5.98-2.47-9.16c-0.24-2.26-0.48-4.56,0.01-6.77c0.27-1.2,0.76-2.36,0.96-3.58
														c0.2-1.22,0.08-2.58-0.73-3.51c-0.13-0.15-0.35-0.34-0.61-0.55c-2.12-1.63-4.97-1.98-7.43-0.92
														c-3.9,1.67-10.59,4.22-12.46,2.98c-2.69-1.79-3.38-3.02-3.38-3.02L221.64,93.53z"/>
												</g>
											</g>
										</g>
									</g>
								</g>
							</g>
						</g>
						<g>
							<g>
								<g>
									<g>
										<g>
											<path fill="#263238" d="M240.54,83.67c-3.98-1.05-8.42-0.7-11.94,1.43c-1.87,1.13-3.52,2.85-3.97,4.99
												c-0.46,2.14,0.61,4.66,2.68,5.36l0.14,0.08c3.09,0.82,5.03,0.29,7.98-0.95c2.48-1.04,4.64-2.75,7.13-3.78
												c2.64-1.1,5.62-1.37,8.42-0.79C248.07,87.09,244.52,84.72,240.54,83.67z"/>
										</g>
									</g>
								</g>
							</g>
						</g>
					</g>
				</g>
			</g>
			<g>
				<g>
					<path fill="#455A64" d="M267.1,129.03c-0.01-0.03-0.25,0.04-0.72,0.03c-0.46-0.02-1.17-0.17-1.9-0.68
						c-0.72-0.5-1.49-1.36-1.8-2.58c-0.34-1.21-0.28-2.69,0.08-4.24c0.35-1.56,1.03-3.21,1.43-5.11c0.19-0.94,0.29-1.97,0.16-3
						c-0.13-1.03-0.49-2.11-1.22-2.98c-0.74-0.87-1.8-1.4-2.85-1.8c-1.05-0.41-2.15-0.73-3.1-1.33c-1.96-1.17-3.17-3.37-3.92-5.66
						c-0.77-2.32-1.08-4.72-1.71-6.99c-0.61-2.25-1.55-4.44-3.16-5.98c-1.61-1.54-3.74-2.21-5.67-2.25
						c-1.95-0.05-3.74,0.43-5.21,1.15c-2.95,1.5-4.67,3.64-5.75,5.07c-0.54,0.73-0.91,1.33-1.16,1.74
						c-0.24,0.41-0.36,0.63-0.34,0.64c0.02,0.01,0.16-0.19,0.43-0.59c0.27-0.39,0.67-0.97,1.23-1.68c1.12-1.38,2.86-3.45,5.75-4.87
						c1.43-0.68,3.17-1.12,5.04-1.05c1.85,0.06,3.86,0.72,5.36,2.17c1.51,1.46,2.41,3.55,3.01,5.77c0.62,2.22,0.92,4.64,1.71,7.02
						c0.77,2.34,2.04,4.67,4.15,5.93c1.03,0.64,2.16,0.96,3.19,1.36c1.03,0.39,2,0.88,2.66,1.65c0.66,0.78,1.01,1.76,1.14,2.73
						c0.13,0.98,0.05,1.94-0.13,2.86c-0.36,1.84-1.02,3.5-1.36,5.11c-0.35,1.59-0.39,3.14,0,4.4c0.36,1.28,1.2,2.17,1.97,2.67
						c0.78,0.51,1.53,0.62,2.01,0.61C266.86,129.14,267.1,129.03,267.1,129.03z"/>
				</g>
			</g>
			<g>
				<g>
					<path fill="#455A64" d="M233.07,83.59c0-0.05-0.86-0.11-2.15,0.32c-1.28,0.42-2.99,1.42-4.18,3.17
						c-1.19,1.75-1.5,3.71-1.42,5.05c0.07,1.36,0.44,2.14,0.48,2.12c0.09-0.02-0.14-0.82-0.12-2.13c0.01-1.29,0.37-3.12,1.48-4.76
						c1.12-1.63,2.69-2.63,3.89-3.12C232.26,83.76,233.09,83.68,233.07,83.59z"/>
				</g>
			</g>
			<g>
				<g>
					<path fill="#455A64" d="M218.79,90.71c-0.12-0.05-0.64,1.09-0.54,2.59c0.09,1.5,0.73,2.57,0.85,2.51
						c0.14-0.06-0.26-1.15-0.33-2.54C218.67,91.88,218.93,90.75,218.79,90.71z"/>
				</g>
			</g>
		</g>
		<path fill="#FFBE9D" d="M189.54,253.17l-4.09,38.5l-3.88,14.59l3.99,10.88l7.86,6.02c0,0,1.17-0.58,1.17-1.94l3.69-0.19
			c0,0-1.55-1.75-2.91-2.14l2.91-0.97c0,0-0.78-1.36-2.53-1.36c-1.75,0-4.27-0.39-4.27-0.39l-1.55-2.14l-1.42-6.6l3.56-2.72
			l2.14,3.88l0.39,5.83c0,0,2.14,0.78,2.72-3.5s0.19-13.98-0.39-15.54c-0.58-1.55-1.75-4.86-1.75-4.86l9.43-34.34L189.54,253.17z"/>
		<g>
			<path fill="#263238" d="M231.16,148.67l-27.41,15l12.52,36.63l1.45,26.09l-8.29,42.26c0,0,22.63,3.42,31.69,4.34
				c6.05,0.62,41.21-3.32,41.21-3.32l-1.58-45.32l-2.16-59.88l1.58-12.12l-25.82-8.17L231.16,148.67z"/>
			<polygon fill="#263238" points="230.72,149.86 230.72,145.83 256.49,142.06 256.22,149.86 230.22,152.65 			"/>
			<path fill="#263238" d="M277.93,151.63c0.79,0,12.77,0.71,16.46,9.66c3.69,8.96,17.39,47.96,17.39,55.07
				c0,7.11-2.63,14.23-8.96,15.28c-6.32,1.05-17.65-6.32-17.65-6.32l10.01-21.87l-15.78-8.97l-3.19-35.82L277.93,151.63z"/>
			<path fill="#263238" d="M203.75,163.66c0,0-3.37,3.56-3.86,13.21c-0.5,9.65-2.97,42.83-2.97,42.83l-8.42,34.16l18.21,4.19
				l10.05-37.03l3.18-34.26L203.75,163.66z"/>
			<g>
				<path fill="#455A64" d="M217.71,226.38c-0.02,0-0.05-0.18-0.08-0.52c-0.04-0.4-0.08-0.9-0.13-1.51
					c-0.1-1.39-0.23-3.26-0.39-5.55c-0.31-4.69-0.7-11.16-1.09-18.32c0-0.06-0.01-0.12-0.01-0.17l0.02,0.08
					c-2.63-6.66-4.19-12.93-5.6-17.37c-0.69-2.22-1.28-4.01-1.71-5.24c-0.2-0.57-0.36-1.04-0.49-1.42c-0.11-0.33-0.16-0.5-0.14-0.51
					c0.02-0.01,0.1,0.15,0.24,0.47c0.14,0.31,0.34,0.78,0.58,1.38c0.49,1.21,1.14,2.98,1.87,5.2c1.51,4.42,3.13,10.67,5.74,17.29
					l0.02,0.04l0,0.04c0,0.05,0.01,0.11,0.01,0.17c0.4,7.15,0.73,13.63,0.94,18.33c0.09,2.29,0.17,4.17,0.23,5.56
					c0.01,0.61,0.03,1.11,0.04,1.51C217.74,226.2,217.73,226.38,217.71,226.38z"/>
			</g>
			<g>
				<path fill="#455A64" d="M214.74,269.24c-0.13,0.04-0.56-1.4-0.3-3.19c0.25-1.8,1.07-3.05,1.19-2.98
					c0.14,0.07-0.44,1.36-0.67,3.05C214.71,267.81,214.89,269.21,214.74,269.24z"/>
			</g>
			<g>
				<path fill="#455A64" d="M226,271.35c-0.12,0.06-0.82-1.35-0.94-3.26c-0.13-1.91,0.39-3.4,0.52-3.35c0.15,0.03-0.12,1.51,0,3.32
					C225.69,269.87,226.14,271.29,226,271.35z"/>
			</g>
			<g>
				<path fill="#455A64" d="M238.8,274.04c-0.15,0-0.29-1.88-0.76-4.15c-0.45-2.27-1.06-4.06-0.92-4.11
					c0.12-0.05,0.96,1.69,1.43,4.01C239.02,272.12,238.93,274.05,238.8,274.04z"/>
			</g>
			<g>
				<path fill="#455A64" d="M249.9,272.66c-0.15,0.01-0.33-1.58-0.61-3.52c-0.27-1.94-0.54-3.52-0.4-3.55
					c0.14-0.03,0.64,1.51,0.91,3.48C250.09,271.03,250.04,272.65,249.9,272.66z"/>
			</g>
			<g>
				<path fill="#455A64" d="M262.12,269.65c-0.15-0.02-0.07-1.56-0.38-3.41c-0.29-1.86-0.86-3.29-0.71-3.35
					c0.12-0.06,0.92,1.33,1.23,3.27C262.58,268.1,262.25,269.68,262.12,269.65z"/>
			</g>
			<g>
				<path fill="#455A64" d="M274.4,269.05c-0.16,0-0.2-1.9-1-4.06c-0.78-2.17-1.97-3.65-1.85-3.75c0.08-0.1,1.52,1.3,2.34,3.57
					C274.72,267.08,274.53,269.07,274.4,269.05z"/>
			</g>
		</g>
		<g>
			<path fill="#FF725E" d="M255.65,138.38l0.57,9.35l0.87,7.94l6.88,4.48c0,0,12.86-8.95,22.74-7.46
				c9.88,1.49,14.63,12.63,14.63,12.63s-3.32-12.39-11.37-14.78c-8.05-2.39-13.77-5.55-13.77-5.55l-5.76-6.61h-8.3
				c-1.82,0-3.49,0.99-4.36,2.59l0,0L255.65,138.38z"/>
			<g>
				<path fill="#FFBE9D" d="M250.69,156.64l6.4-0.96l6.88,4.48l1.92,10.88l2.24,12.48l27.05,18.86c0,0,5,6.9-1.19,17.14
					c0,0-4.91,5.15-8.83,4.73c-3.92-0.42-24.72-34.27-24.72-34.27s-4.8-3.58-4.96-5.66c-0.16-2.08,0.96-7.04,0.96-7.04l-1.92-1.28
					l-1.92,0.96c0,0,1.44,5.76-1.92,6.4c0,0-1.76,2.08-3.68,1.6v-8c0,0-1.92,0.32-3.2-0.96l1.44-5.28l6.56-5.92l7.2,0.48l-0.32-4.16
					l-3.04-1.76C255.65,159.36,250.37,159.84,250.69,156.64z"/>
				<path fill="#FF725E" d="M255.65,159.36c0,0,2.5,1.88,4.5-1.69v-1.22l2.61,1.12c0,0-0.7,3.33-4.07,3.55l0,0
					c-0.91,0-1.78-0.38-2.4-1.06L255.65,159.36z"/>
			</g>
			<g>
				<path fill="#263238" d="M264.14,154.55c-0.01,0.03-0.23-0.02-0.61-0.16c-0.2-0.06-0.43-0.16-0.68-0.31
					c-0.26-0.14-0.55-0.3-0.84-0.53c-1.21-0.85-2.47-2.57-3.18-4.68c-0.74-2.11-0.95-4.12-1.06-5.56c-0.09-1.44-0.04-2.34,0.02-2.34
					c0.08,0,0.16,0.88,0.34,2.3c0.2,1.41,0.47,3.38,1.19,5.42c0.69,2.05,1.82,3.68,2.92,4.57
					C263.32,154.16,264.19,154.45,264.14,154.55z"/>
			</g>
			<g>
				<path fill="#263238" d="M278.4,148.21c0.04,0.17-3.91,0.54-8.23,2.63c-4.35,2.04-7.12,4.86-7.23,4.73
					c-0.04-0.04,0.59-0.8,1.8-1.84c1.2-1.04,3.02-2.31,5.21-3.36c2.2-1.04,4.34-1.64,5.9-1.92
					C277.41,148.17,278.4,148.15,278.4,148.21z"/>
			</g>
		</g>
	</g>
</g>
<g id="Spotlights">
	<g>
		
			<rect x="76.33" y="207.14" transform="matrix(0.9999 0.0164 -0.0164 0.9999 4.5027 -1.269)" fill="#455A64" width="6.14" height="132"/>
		<polygon fill="#455A64" points="75.25,339.08 27.68,466.91 32.97,467 81.39,339.18 		"/>
		<polygon fill="#455A64" points="81.52,339.18 124.45,466.95 119.06,466.86 75.38,339.08 		"/>
		
			<rect x="54.65" y="403.36" transform="matrix(-0.9999 -0.0164 0.0164 -0.9999 147.7712 812.452)" fill="#455A64" width="45.16" height="4.51"/>
		<g>
			<polygon fill="#455A64" points="106.97,138.59 130.76,147.16 142.49,130.53 129.24,113.54 			"/>
			<path fill="#263238" d="M73.17,93.72L73.17,93.72c-3.42,4.61-2.38,11.13,2.32,14.43l24.62,16.2l11.78-15.53L87.23,91.47
				C82.7,88.28,76.47,89.28,73.17,93.72z"/>
			<path fill="#263238" d="M104.85,107.09l28.63,5.57l-24.95,30.61c0,0-11.48-25.27-11.46-26.46L104.85,107.09z"/>
			
				<rect x="79.8" y="104.87" transform="matrix(0.9999 0.0164 -0.0164 0.9999 2.5768 -1.3165)" fill="#263238" width="3.07" height="102.28"/>
			<polygon fill="#263238" points="110.71,139.41 115.67,158.5 112.34,159.05 108.05,142.18 			"/>
			<polygon fill="#263238" points="133.48,112.65 150.78,115.72 149.23,118.61 129.44,115.37 			"/>
			<g>
				<path fill="#455A64" d="M99.82,124.16c0.06,0.04,0.78-0.79,1.88-2.18c1.1-1.4,2.56-3.36,4.14-5.56
					c1.52-2.13,2.89-4.06,4.02-5.65c1.02-1.45,1.64-2.36,1.58-2.4c-0.06-0.04-0.78,0.79-1.87,2.18c-1.1,1.4-2.56,3.37-4.14,5.56
					c-1.52,2.13-2.89,4.06-4.02,5.65C100.38,123.21,99.76,124.12,99.82,124.16z"/>
			</g>
			<g>
				<path fill="#455A64" d="M109.68,110.65c-0.02,0.07,1.14,0.5,3.05,1.09c1.91,0.59,4.57,1.34,7.55,2.04
					c2.97,0.7,5.69,1.23,7.66,1.55c1.97,0.33,3.21,0.46,3.22,0.39c0.01-0.07-1.2-0.34-3.15-0.76c-1.95-0.42-4.65-1-7.61-1.7
					c-2.96-0.7-5.63-1.39-7.56-1.89C110.9,110.89,109.7,110.58,109.68,110.65z"/>
			</g>
			<g>
				<path fill="#455A64" d="M102.39,122.45c-0.06,0.05,0.54,0.98,1.47,2.51c0.93,1.53,2.16,3.68,3.34,6.14
					c1.18,2.46,2.09,4.76,2.71,6.44c0.62,1.68,0.96,2.74,1.04,2.72c0.06-0.02-0.16-1.11-0.69-2.83c-0.53-1.72-1.39-4.07-2.59-6.55
					c-1.2-2.48-2.49-4.62-3.5-6.11C103.16,123.27,102.44,122.42,102.39,122.45z"/>
			</g>
		</g>
	</g>
	<g>
		<polygon fill="#263238" points="426.7,466.95 430.39,466.95 430.39,126.4 426.7,125.92 		"/>
		<polygon fill="#455A64" points="426.51,382.68 414.3,389.4 445.59,389.4 432.31,382.68 		"/>
		<path fill="#263238" d="M419.72,389.4c-0.84,0-46.62,77.55-46.62,77.55h4.77l47.32-77.55H419.72z"/>
		<path fill="#263238" d="M439.56,389.4c0.84,0,46.62,77.55,46.62,77.55h-4.77l-47.32-77.55H439.56z"/>
		<g>
			<path fill="#263238" d="M455.53,418.83c-0.01-0.01-0.21,0.14-0.57,0.44c-0.4,0.34-0.92,0.78-1.57,1.33
				c-1.39,1.21-3.32,2.9-5.7,4.97c-4.81,4.27-11.39,10.1-18.66,16.54c-0.12,0.11-0.24,0.22-0.36,0.32l0.34-0.01
				c-7.45-6.07-14.17-11.55-19.08-15.56c-2.42-1.94-4.39-3.52-5.81-4.66c-0.66-0.52-1.19-0.93-1.59-1.24
				c-0.37-0.28-0.57-0.42-0.58-0.41c-0.01,0.01,0.17,0.18,0.51,0.49c0.39,0.34,0.9,0.77,1.53,1.32c1.39,1.17,3.33,2.79,5.7,4.78
				c4.89,4.04,11.58,9.56,18.98,15.68l0.17,0.14l0.17-0.15c0.11-0.1,0.23-0.21,0.36-0.32c7.23-6.49,13.77-12.36,18.56-16.65
				c2.33-2.12,4.22-3.85,5.58-5.09c0.62-0.58,1.12-1.05,1.5-1.4C455.37,419.02,455.54,418.84,455.53,418.83z"/>
		</g>
		<g>
			<path fill="#263238" d="M412.57,403.36c0,0.14,7.49,0.26,16.73,0.26c9.24,0,16.73-0.12,16.73-0.26s-7.49-0.26-16.73-0.26
				C420.06,403.1,412.57,403.22,412.57,403.36z"/>
		</g>
		<path fill="#263238" d="M362.52,63.28l90.79,133.25c0.64,0.94,1.92,1.18,2.86,0.54l0,0c0.94-0.64,1.18-1.92,0.54-2.86
			L365.92,60.97c-0.64-0.94-1.92-1.18-2.86-0.54l0,0C362.13,61.07,361.88,62.35,362.52,63.28z"/>
		<path fill="#263238" d="M372.47,55.93c-8.41,7.05-18.93,15.78-18.93,15.78l-16.9-20.31l18.43-15.91
			c5.65-4.88,14.19-4.21,19.01,1.48l0,0C378.89,42.64,378.17,51.15,372.47,55.93z"/>
		<path fill="#263238" d="M354.67,70.61c0.39,1.18,10.29,24.21,10.29,24.21l-0.74,48.92l-5.46,5.07L257.4,38.06l5.46-5.07
			l49.22,5.37l25.68,11.93L354.67,70.61z"/>
		<path fill="#455A64" d="M438.39,164.46c-0.49,0.62-12.41,10.59-19.43-0.5c-7.03-11.09,7.76-17.48,7.76-17.48L438.39,164.46z"/>
		<g>
			<path fill="#263238" d="M423.48,157.65c0.04,0.02,0.17-0.27,0.53-0.68c0.35-0.41,0.98-0.94,1.92-1.14c0.91-0.21,2.15,0,3.04,0.88
				c0.9,0.84,1.3,2.38,0.71,3.69c-0.57,1.32-1.98,2.05-3.21,1.95c-1.25-0.07-2.24-0.84-2.69-1.67c-0.48-0.83-0.51-1.66-0.45-2.19
				C423.4,157.95,423.52,157.66,423.48,157.65c-0.02-0.01-0.21,0.25-0.35,0.81c-0.13,0.55-0.17,1.45,0.32,2.4
				c0.46,0.93,1.55,1.86,2.98,1.97c1.4,0.14,3.06-0.68,3.72-2.21c0.69-1.52,0.2-3.3-0.85-4.24c-1.04-0.99-2.46-1.18-3.46-0.89
				c-1.03,0.27-1.68,0.9-2,1.37C423.52,157.32,423.45,157.64,423.48,157.65z"/>
		</g>
		<g>
			<path fill="#455A64" d="M262.56,33.27c-0.11,0.1,22.68,24.83,50.89,55.23c28.22,30.41,51.17,54.98,51.28,54.88
				c0.11-0.1-22.68-24.82-50.9-55.23C285.63,57.74,262.67,33.17,262.56,33.27z"/>
		</g>
		<g>
			<path fill="#455A64" d="M337.5,50.65c-0.03,0.02,0.19,0.31,0.61,0.82c0.5,0.59,1.1,1.29,1.8,2.11c1.63,1.87,3.71,4.26,6.01,6.91
				c2.29,2.65,4.37,5.05,5.99,6.93c0.71,0.81,1.32,1.5,1.83,2.09c0.44,0.49,0.7,0.74,0.72,0.72c0.03-0.02-0.18-0.32-0.57-0.85
				c-0.39-0.53-0.97-1.28-1.71-2.19c-1.46-1.83-3.53-4.33-5.88-7.03c-2.34-2.7-4.52-5.1-6.13-6.81c-0.8-0.85-1.46-1.54-1.93-2
				C337.8,50.87,337.53,50.62,337.5,50.65z"/>
		</g>
		<g>
			<path fill="#455A64" d="M314.51,40.65c-0.01,0.01,0.15,0.2,0.48,0.55c0.37,0.38,0.85,0.89,1.44,1.52
				c1.3,1.35,3.12,3.24,5.35,5.55c4.52,4.69,10.71,11.2,17.43,18.51c6.72,7.32,12.68,14.05,16.96,18.94
				c2.11,2.42,3.84,4.39,5.07,5.8c0.58,0.65,1.04,1.17,1.39,1.57c0.32,0.35,0.5,0.54,0.51,0.52c0.01-0.01-0.14-0.21-0.43-0.59
				c-0.33-0.41-0.77-0.96-1.32-1.63c-1.15-1.41-2.84-3.43-4.95-5.91c-4.22-4.96-10.14-11.73-16.86-19.06
				c-6.72-7.32-12.96-13.8-17.55-18.42c-2.29-2.31-4.16-4.17-5.47-5.43c-0.63-0.6-1.13-1.08-1.51-1.45
				C314.72,40.81,314.53,40.64,314.51,40.65z"/>
		</g>
		<g>
			<path fill="#263238" d="M393.28,103.11c0.01,0.01,0.08-0.04,0.21-0.15c0.16-0.13,0.35-0.29,0.6-0.48
				c0.49-0.46,1.22-1.15,1.97-2.19c1.49-2.04,3.18-5.62,2.95-10.27c-0.13-2.3-0.79-4.8-2.06-7.19c-1.27-2.39-3.15-4.67-5.57-6.53
				c-2.43-1.87-5.38-3.11-8.13-4.84c-1.38-0.86-2.69-1.88-3.74-3.16c-1.03-1.29-1.75-2.85-1.9-4.54c-0.17-1.68,0.18-3.39,1.03-4.78
				c0.85-1.4,2.24-2.38,3.75-2.84c1.51-0.47,3.17-0.39,4.51,0.31c1.34,0.69,2.3,1.97,2.73,3.34c0.44,1.38,0.34,2.89-0.34,4.07
				c-0.68,1.19-1.84,2.01-3.05,2.45c-2.48,0.92-5.07,0.23-7.03-0.78c-4.02-2.12-6.3-5.22-7.54-7.39c-0.62-1.11-1.01-2.02-1.24-2.64
				c-0.24-0.62-0.35-0.96-0.37-0.95c0,0,0.25,1.41,1.44,3.69c1.2,2.22,3.46,5.4,7.55,7.62c1.02,0.53,2.17,0.98,3.42,1.18
				c1.25,0.21,2.62,0.14,3.92-0.33c1.29-0.46,2.54-1.33,3.3-2.63c0.76-1.3,0.88-2.96,0.41-4.44c-0.46-1.48-1.49-2.87-2.96-3.64
				c-1.47-0.77-3.26-0.85-4.88-0.36c-1.62,0.49-3.12,1.55-4.04,3.06c-0.92,1.5-1.29,3.33-1.11,5.11c0.09,0.89,0.31,1.76,0.66,2.58
				c0.34,0.82,0.83,1.55,1.36,2.24c1.1,1.34,2.46,2.39,3.87,3.26c2.8,1.75,5.74,2.98,8.11,4.79c2.37,1.8,4.22,4.03,5.48,6.35
				c1.26,2.33,1.93,4.76,2.08,7c0.27,4.54-1.33,8.08-2.75,10.13c-0.72,1.05-1.41,1.75-1.88,2.23c-0.23,0.21-0.41,0.38-0.56,0.52
				C393.33,103.03,393.27,103.1,393.28,103.11z"/>
		</g>
	</g>
	<g>
		<g>
			<path fill="#FF725E" d="M169.75,179.42c0.13,0.07-6.75,12.93-15.36,28.72c-8.61,15.8-15.69,28.54-15.81,28.48
				c-0.13-0.07,6.75-12.93,15.36-28.72C162.55,192.1,169.63,179.35,169.75,179.42z"/>
		</g>
		<g>
			<path fill="#FF725E" d="M176.57,223.67c0.03,0.02-0.26,0.5-0.8,1.36c-0.54,0.86-1.35,2.08-2.36,3.57
				c-2.04,2.99-4.95,7.06-8.34,11.42c-3.39,4.36-6.62,8.19-9.01,10.9c-1.2,1.36-2.18,2.44-2.88,3.17c-0.7,0.74-1.09,1.13-1.12,1.11
				c-0.03-0.02,0.32-0.46,0.97-1.24c0.71-0.85,1.64-1.95,2.75-3.28c2.32-2.77,5.5-6.62,8.88-10.98c3.38-4.35,6.34-8.38,8.45-11.31
				c1.01-1.41,1.85-2.58,2.5-3.48C176.2,224.1,176.54,223.65,176.57,223.67z"/>
		</g>
		<g>
			<path fill="#FF725E" d="M182.31,267.26c0.08,0.12-2.78,2.17-6.39,4.59c-3.61,2.42-6.6,4.28-6.68,4.16
				c-0.08-0.12,2.78-2.17,6.39-4.59C179.24,269,182.23,267.14,182.31,267.26z"/>
		</g>
		<path fill="#263238" d="M98.3,224.24c-8.52,6.57-7.06,23.83-4.48,36.11c2.52,12.04,6.27,23.63,12.08,34.47
			c7.69,14.36,16.27,28.59,27.65,40.81c10.89,11.69,23.79,21.27,39.29,17.4L98.3,224.24z"/>
		<g>
			<path fill="#263238" d="M131.34,449.38L131.34,449.38c-1.22,0-2.21-0.99-2.21-2.21V316.82h4.43v130.34
				C133.55,448.39,132.56,449.38,131.34,449.38z"/>
			<polygon fill="#455A64" points="129.13,401.24 119.82,406.47 143.68,406.47 133.55,401.24 			"/>
			<path fill="#263238" d="M123.95,406.47c-0.64,0-35.55,60.42-35.55,60.42h3.64l36.08-60.42H123.95z"/>
			<path fill="#263238" d="M139.08,406.47c0.64,0,35.55,60.42,35.55,60.42h-3.64l-36.08-60.42H139.08z"/>
			<g>
				<path fill="#263238" d="M151.26,429.4c0.01,0.01-0.12,0.15-0.37,0.41c-0.3,0.29-0.68,0.66-1.14,1.1
					c-1.06,0.99-2.49,2.34-4.24,3.98c-3.67,3.37-8.64,7.94-14.13,12.98c-0.1,0.09-0.19,0.18-0.28,0.26l-0.17,0.15l-0.17-0.15
					c-5.63-4.76-10.72-9.06-14.46-12.23c-1.79-1.54-3.26-2.81-4.33-3.74c-0.47-0.42-0.85-0.76-1.16-1.04
					c-0.26-0.24-0.39-0.37-0.38-0.39c0.01-0.01,0.17,0.09,0.45,0.31c0.33,0.26,0.73,0.57,1.22,0.96c1.11,0.9,2.61,2.12,4.44,3.61
					c3.77,3.14,8.89,7.39,14.56,12.11l-0.34,0.01c0.09-0.08,0.18-0.17,0.28-0.26c5.53-5,10.54-9.53,14.23-12.87
					c1.8-1.59,3.27-2.9,4.35-3.86c0.49-0.42,0.88-0.76,1.2-1.03C151.09,429.5,151.25,429.38,151.26,429.4z"/>
			</g>
			<g>
				<path fill="#263238" d="M118.5,417.35c0-0.14,5.71-0.26,12.76-0.26c7.05,0,12.76,0.12,12.76,0.26s-5.71,0.26-12.76,0.26
					C124.21,417.61,118.5,417.49,118.5,417.35z"/>
			</g>
		</g>
		
			<ellipse transform="matrix(0.866 -0.5 0.5 0.866 -125.7179 106.8849)" fill="#FF725E" cx="136.59" cy="288.04" rx="22.55" ry="74.51"/>
		<g>
			<path fill="#263238" d="M152.79,278.86c0,0-0.15-0.22-0.42-0.67c-0.28-0.46-0.67-1.12-1.19-1.99c-1.06-1.74-2.62-4.31-4.71-7.56
				c-2.09-3.25-4.72-7.19-7.96-11.63c-3.24-4.44-7.06-9.4-11.69-14.53c-2.32-2.56-4.82-5.18-7.62-7.7c-2.8-2.5-5.86-5.01-9.45-6.87
				c-1.79-0.9-3.75-1.67-5.8-1.66c-2.05-0.02-4.01,1.25-4.81,3.23c-0.92,1.91-1.12,4.14-1.15,6.34c-0.01,2.21,0.22,4.45,0.56,6.7
				c1.49,9.01,4.69,18.12,8.5,27.29c3.87,9.16,8.51,18.37,13.78,27.51c5.28,9.13,10.94,17.76,16.94,25.69
				c6.03,7.89,12.33,15.22,19.38,21.01c1.78,1.43,3.6,2.75,5.52,3.84c1.92,1.07,3.95,2.01,6.06,2.17c2.12,0.3,4.19-0.77,5.2-2.56
				c1.03-1.77,1.34-3.86,1.46-5.86c0.18-4.04-0.47-7.94-1.23-11.62c-0.79-3.68-1.8-7.16-2.86-10.45
				c-2.14-6.57-4.52-12.37-6.74-17.39c-2.23-5.02-4.32-9.27-6.09-12.7c-1.77-3.44-3.21-6.07-4.19-7.86
				c-0.49-0.88-0.86-1.56-1.12-2.03C152.9,279.1,152.79,278.86,152.79,278.86s2.26,3.64,5.86,10.49c1.8,3.43,3.92,7.66,6.18,12.68
				c2.25,5.02,4.66,10.81,6.83,17.39c1.07,3.29,2.1,6.78,2.9,10.48c0.78,3.7,1.44,7.62,1.27,11.73c-0.12,2.03-0.42,4.17-1.51,6.07
				c-0.54,0.94-1.37,1.74-2.37,2.24c-0.49,0.27-1.04,0.39-1.59,0.51c-0.55,0.04-1.11,0.11-1.67,0.03c-2.24-0.17-4.31-1.14-6.26-2.22
				c-1.95-1.11-3.8-2.44-5.59-3.88c-7.12-5.83-13.43-13.17-19.49-21.07c-6.02-7.95-11.69-16.59-16.98-25.74
				c-5.28-9.15-9.92-18.39-13.79-27.57c-3.81-9.19-7.02-18.33-8.5-27.41c-0.35-2.27-0.58-4.53-0.56-6.78
				c0.04-2.23,0.24-4.51,1.21-6.53c0.21-0.52,0.55-0.97,0.86-1.43c0.38-0.41,0.76-0.83,1.24-1.12c0.93-0.61,2.03-0.93,3.12-0.93
				c2.18,0,4.19,0.81,6.01,1.72c3.64,1.91,6.71,4.44,9.52,6.96c2.8,2.54,5.31,5.18,7.63,7.75c4.62,5.16,8.43,10.15,11.65,14.61
				c3.21,4.46,5.82,8.42,7.89,11.69C150.76,275.09,152.79,278.86,152.79,278.86z"/>
		</g>
		<g>
			<path fill="#FF725E" d="M147.5,196.92l3.89,1.07l-2.88,0.7c-1.47,0.23-2.13,0.87-2.39,1.68l-0.9,7.25l-1.1-7.25
				c-0.27-0.68-0.83-1.22-1.52-1.47l-3.73-0.91l3.94-1.12c0.66-0.27,1.18-0.8,1.43-1.46l0.98-8.21l0.7,8.03
				C146.16,196.02,146.74,196.64,147.5,196.92z"/>
		</g>
		<g>
			<path fill="#FF725E" d="M127.62,214.99l2.79,0.77l-2.06,0.5c-1.05,0.17-1.53,0.62-1.72,1.21l-0.64,5.2l-0.79-5.2
				c-0.2-0.49-0.59-0.87-1.09-1.05l-2.68-0.65l2.83-0.8c0.47-0.19,0.84-0.57,1.03-1.05l0.7-5.89l0.51,5.76
				C126.66,214.33,127.08,214.78,127.62,214.99z"/>
		</g>
	</g>
</g>
</svg>
